<svg id="domains-v9-folded-catalog-icon" class="domains-database-concept" xmlns="http://www.w3.org/2000/svg" width="400" height="360" viewBox="0 0 400 360" role="img" aria-labelledby="domains-v9-folded-catalog-icon-title domains-v9-folded-catalog-icon-description">
  <title id="domains-v9-folded-catalog-icon-title" class="concept-title">Domains Database — Folded Catalog icon</title>
  <desc id="domains-v9-folded-catalog-icon-description" class="concept-description">A rounded navy catalog carries six teal extension tabs and a single open page corner.</desc>
  <g id="domains-v9-folded-catalog-icon-catalog" class="domain-catalog" ><path id="domains-v9-folded-catalog-icon-catalog-cover" class="catalog-cover" d="M54 28h234l62 62v216a24 24 0 0 1-24 24H54a24 24 0 0 1-24-24V52a24 24 0 0 1 24-24Z" fill="#133B50"></path><path id="domains-v9-folded-catalog-icon-catalog-fold" class="catalog-fold" d="M288 28v38a24 24 0 0 0 24 24h38Z" fill="#19AEAB"></path><path id="domains-v9-folded-catalog-icon-catalog-rule" class="catalog-rule" d="M58 110h264M58 200h264M190 124v166" stroke="#138B8B" stroke-width="5" fill="none"></path><path id="domains-v9-folded-catalog-icon-com-tab" class="extension-tab" d="M60 126h93l17 17v27H60Z" fill="#19AEAB"></path><text id="domains-v9-folded-catalog-icon-com-label" class="domain-label" x="69" y="157" fill="#133B50" font-family="Arial, Helvetica, sans-serif" font-size="24" font-weight="700">.com</text><path id="domains-v9-folded-catalog-icon-org-tab" class="extension-tab" d="M60 186h93l17 17v27H60Z" fill="#19AEAB"></path><text id="domains-v9-folded-catalog-icon-org-label" class="domain-label" x="69" y="217" fill="#133B50" font-family="Arial, Helvetica, sans-serif" font-size="24" font-weight="700">.org</text><path id="domains-v9-folded-catalog-icon-dev-tab" class="extension-tab" d="M60 246h93l17 17v27H60Z" fill="#19AEAB"></path><text id="domains-v9-folded-catalog-icon-dev-label" class="domain-label" x="69" y="277" fill="#133B50" font-family="Arial, Helvetica, sans-serif" font-size="24" font-weight="700">.dev</text><path id="domains-v9-folded-catalog-icon-net-tab" class="extension-tab" d="M210 126h93l17 17v27H210Z" fill="#19AEAB"></path><text id="domains-v9-folded-catalog-icon-net-label" class="domain-label" x="219" y="157" fill="#133B50" font-family="Arial, Helvetica, sans-serif" font-size="24" font-weight="700">.net</text><path id="domains-v9-folded-catalog-icon-app-tab" class="extension-tab" d="M210 186h93l17 17v27H210Z" fill="#19AEAB"></path><text id="domains-v9-folded-catalog-icon-app-label" class="domain-label" x="219" y="217" fill="#133B50" font-family="Arial, Helvetica, sans-serif" font-size="24" font-weight="700">.app</text><path id="domains-v9-folded-catalog-icon-io-tab" class="extension-tab" d="M210 246h93l17 17v27H210Z" fill="#19AEAB"></path><text id="domains-v9-folded-catalog-icon-io-label" class="domain-label" x="219" y="277" fill="#133B50" font-family="Arial, Helvetica, sans-serif" font-size="24" font-weight="700">.io</text></g>
</svg>
